<svg xmlns="http://www.w3.org/2000/svg" viewBox="0 0 249.5 165.33"><defs><style>.cls-1{fill:#4c66b0;}.cls-2{fill:#40bdaa;}.cls-3{fill:#2b2928;}.cls-4{fill:#171717;}.cls-5{fill:#181818;}.cls-6{fill:#aac138;}.cls-7{fill:#e4d6d8;}.cls-8{fill:#cfbebf;}</style></defs><title>Artboard 1</title><g id="Layer_6" data-name="Layer 6"><rect class="cls-1" x="0.5" y="0.5" width="248.5" height="164.33" rx="5" ry="5"/><path class="cls-2" d="M244,165.33H5.5a5.5,5.5,0,0,1-5.5-5.5V5.5A5.51,5.51,0,0,1,5.5,0H244a5.51,5.51,0,0,1,5.5,5.5V159.83A5.5,5.5,0,0,1,244,165.33ZM5.5,1A4.51,4.51,0,0,0,1,5.5V159.83a4.51,4.51,0,0,0,4.5,4.5H244a4.51,4.51,0,0,0,4.5-4.5V5.5A4.51,4.51,0,0,0,244,1Z"/></g><g id="Layer_5" data-name="Layer 5"><rect class="cls-3" x="7.67" y="9.58" width="233.75" height="147.5" rx="5" ry="5"/></g><g id="Layer_3" data-name="Layer 3"><rect class="cls-4" x="17.92" y="17.83" width="165" height="130.75" rx="5" ry="5"/></g><g id="Layer_1" data-name="Layer 1"><circle class="cls-5" cx="195.6" cy="61.69" r="0.91"/><circle class="cls-5" cx="195.6" cy="65.69" r="0.91"/><circle class="cls-5" cx="195.6" cy="69.69" r="0.91"/><circle class="cls-5" cx="195.6" cy="73.69" r="0.91"/><circle class="cls-5" cx="195.6" cy="77.69" r="0.91"/><circle class="cls-5" cx="195.6" cy="81.69" r="0.91"/><circle class="cls-5" cx="195.6" cy="85.69" r="0.91"/><circle class="cls-5" cx="195.6" cy="89.69" r="0.91"/><circle class="cls-5" cx="195.6" cy="93.69" r="0.91"/><circle class="cls-5" cx="195.6" cy="97.69" r="0.91"/><circle class="cls-5" cx="195.6" cy="101.69" r="0.91"/><circle class="cls-5" cx="195.6" cy="105.69" r="0.91"/><circle class="cls-5" cx="195.6" cy="109.69" r="0.91"/><circle class="cls-5" cx="195.6" cy="113.69" r="0.91"/><circle class="cls-5" cx="195.6" cy="117.69" r="0.91"/><circle class="cls-5" cx="195.6" cy="121.69" r="0.91"/><circle class="cls-5" cx="200.1" cy="59.69" r="0.91"/><circle class="cls-5" cx="200.1" cy="63.69" r="0.91"/><circle class="cls-5" cx="200.1" cy="67.69" r="0.91"/><circle class="cls-5" cx="200.1" cy="71.69" r="0.91"/><circle class="cls-5" cx="200.1" cy="75.69" r="0.91"/><circle class="cls-5" cx="200.1" cy="79.69" r="0.91"/><circle class="cls-5" cx="200.1" cy="83.69" r="0.91"/><circle class="cls-5" cx="200.1" cy="87.69" r="0.91"/><circle class="cls-5" cx="200.1" cy="91.69" r="0.91"/><circle class="cls-5" cx="200.1" cy="95.69" r="0.91"/><circle class="cls-5" cx="200.1" cy="99.69" r="0.91"/><circle class="cls-5" cx="200.1" cy="103.69" r="0.91"/><circle class="cls-5" cx="200.1" cy="107.69" r="0.91"/><circle class="cls-5" cx="200.1" cy="111.69" r="0.91"/><circle class="cls-5" cx="200.1" cy="115.69" r="0.91"/><circle class="cls-5" cx="200.1" cy="119.69" r="0.91"/><circle class="cls-5" cx="204.6" cy="61.69" r="0.91"/><circle class="cls-5" cx="204.6" cy="65.69" r="0.91"/><circle class="cls-5" cx="204.6" cy="69.69" r="0.91"/><circle class="cls-5" cx="204.6" cy="73.69" r="0.91"/><circle class="cls-5" cx="204.6" cy="77.69" r="0.91"/><circle class="cls-5" cx="204.6" cy="81.69" r="0.91"/><circle class="cls-5" cx="204.6" cy="85.69" r="0.91"/><circle class="cls-5" cx="204.6" cy="89.69" r="0.91"/><circle class="cls-5" cx="204.6" cy="93.69" r="0.91"/><circle class="cls-5" cx="204.6" cy="97.69" r="0.91"/><circle class="cls-5" cx="204.6" cy="101.69" r="0.91"/><circle class="cls-5" cx="204.6" cy="105.69" r="0.91"/><circle class="cls-5" cx="204.6" cy="109.69" r="0.91"/><circle class="cls-5" cx="204.6" cy="113.69" r="0.91"/><circle class="cls-5" cx="204.6" cy="117.69" r="0.91"/><circle class="cls-5" cx="204.6" cy="121.69" r="0.91"/><circle class="cls-5" cx="209.1" cy="59.69" r="0.91"/><circle class="cls-5" cx="209.1" cy="63.69" r="0.91"/><circle class="cls-5" cx="209.1" cy="67.69" r="0.91"/><circle class="cls-5" cx="209.1" cy="71.69" r="0.91"/><circle class="cls-5" cx="209.1" cy="75.69" r="0.91"/><circle class="cls-5" cx="209.1" cy="79.69" r="0.91"/><circle class="cls-5" cx="209.1" cy="83.69" r="0.91"/><circle class="cls-5" cx="209.1" cy="87.69" r="0.91"/><circle class="cls-5" cx="209.1" cy="91.69" r="0.91"/><circle class="cls-5" cx="209.1" cy="95.69" r="0.91"/><circle class="cls-5" cx="209.1" cy="99.69" r="0.91"/><circle class="cls-5" cx="209.1" cy="103.69" r="0.91"/><circle class="cls-5" cx="209.1" cy="107.69" r="0.91"/><circle class="cls-5" cx="209.1" cy="111.69" r="0.91"/><circle class="cls-5" cx="209.1" cy="115.69" r="0.91"/><circle class="cls-5" cx="209.1" cy="119.69" r="0.91"/><circle class="cls-5" cx="212.6" cy="61.69" r="0.91"/><circle class="cls-5" cx="212.6" cy="65.69" r="0.91"/><circle class="cls-5" cx="212.6" cy="69.69" r="0.91"/><circle class="cls-5" cx="212.6" cy="73.69" r="0.91"/><circle class="cls-5" cx="212.6" cy="77.69" r="0.91"/><circle class="cls-5" cx="212.6" cy="81.69" r="0.91"/><circle class="cls-5" cx="212.6" cy="85.69" r="0.91"/><circle class="cls-5" cx="212.6" cy="89.69" r="0.91"/><circle class="cls-5" cx="212.6" cy="93.69" r="0.91"/><circle class="cls-5" cx="212.6" cy="97.69" r="0.91"/><circle class="cls-5" cx="212.6" cy="101.69" r="0.91"/><circle class="cls-5" cx="212.6" cy="105.69" r="0.91"/><circle class="cls-5" cx="212.6" cy="109.69" r="0.91"/><circle class="cls-5" cx="212.6" cy="113.69" r="0.91"/><circle class="cls-5" cx="212.6" cy="117.69" r="0.91"/><circle class="cls-5" cx="212.6" cy="121.69" r="0.91"/><circle class="cls-5" cx="217.1" cy="59.69" r="0.91"/><circle class="cls-5" cx="217.1" cy="63.69" r="0.91"/><circle class="cls-5" cx="217.1" cy="67.69" r="0.91"/><circle class="cls-5" cx="217.1" cy="71.69" r="0.91"/><circle class="cls-5" cx="217.1" cy="75.69" r="0.91"/><circle class="cls-5" cx="217.1" cy="79.69" r="0.91"/><circle class="cls-5" cx="217.1" cy="83.69" r="0.91"/><circle class="cls-5" cx="217.1" cy="87.69" r="0.91"/><circle class="cls-5" cx="217.1" cy="91.69" r="0.91"/><circle class="cls-5" cx="217.1" cy="95.69" r="0.91"/><circle class="cls-5" cx="217.1" cy="99.69" r="0.91"/><circle class="cls-5" cx="217.1" cy="103.69" r="0.91"/><circle class="cls-5" cx="217.1" cy="107.69" r="0.91"/><circle class="cls-5" cx="217.1" cy="111.69" r="0.91"/><circle class="cls-5" cx="217.1" cy="115.69" r="0.91"/><circle class="cls-5" cx="217.1" cy="119.69" r="0.91"/><circle class="cls-5" cx="221.6" cy="61.69" r="0.91"/><circle class="cls-5" cx="221.6" cy="65.69" r="0.91"/><circle class="cls-5" cx="221.6" cy="69.69" r="0.91"/><circle class="cls-5" cx="221.6" cy="73.69" r="0.91"/><circle class="cls-5" cx="221.6" cy="77.69" r="0.91"/><circle class="cls-5" cx="221.6" cy="81.69" r="0.91"/><circle class="cls-5" cx="221.6" cy="85.69" r="0.91"/><circle class="cls-5" cx="221.6" cy="89.69" r="0.91"/><circle class="cls-5" cx="221.6" cy="93.69" r="0.91"/><circle class="cls-5" cx="221.6" cy="97.69" r="0.91"/><circle class="cls-5" cx="221.6" cy="101.69" r="0.91"/><circle class="cls-5" cx="221.6" cy="105.69" r="0.91"/><circle class="cls-5" cx="221.6" cy="109.69" r="0.91"/><circle class="cls-5" cx="221.6" cy="113.69" r="0.91"/><circle class="cls-5" cx="221.6" cy="117.69" r="0.91"/><circle class="cls-5" cx="221.6" cy="121.69" r="0.91"/><circle class="cls-5" cx="226.1" cy="59.69" r="0.91"/><circle class="cls-5" cx="226.1" cy="63.69" r="0.91"/><circle class="cls-5" cx="226.1" cy="67.69" r="0.91"/><circle class="cls-5" cx="226.1" cy="71.69" r="0.91"/><circle class="cls-5" cx="226.1" cy="75.69" r="0.91"/><circle class="cls-5" cx="226.1" cy="79.69" r="0.91"/><circle class="cls-5" cx="226.1" cy="83.69" r="0.91"/><circle class="cls-5" cx="226.1" cy="87.69" r="0.91"/><circle class="cls-5" cx="226.1" cy="91.69" r="0.91"/><circle class="cls-5" cx="226.1" cy="95.69" r="0.91"/><circle class="cls-5" cx="226.1" cy="99.69" r="0.91"/><circle class="cls-5" cx="226.1" cy="103.69" r="0.91"/><circle class="cls-5" cx="226.1" cy="107.69" r="0.91"/><circle class="cls-5" cx="226.1" cy="111.69" r="0.91"/><circle class="cls-5" cx="226.1" cy="115.69" r="0.91"/><circle class="cls-5" cx="226.1" cy="119.69" r="0.91"/><circle class="cls-5" cx="230.6" cy="61.69" r="0.91"/><circle class="cls-5" cx="230.6" cy="65.69" r="0.91"/><circle class="cls-5" cx="230.6" cy="69.69" r="0.91"/><circle class="cls-5" cx="230.6" cy="73.69" r="0.91"/><circle class="cls-5" cx="230.6" cy="77.69" r="0.91"/><circle class="cls-5" cx="230.6" cy="81.69" r="0.91"/><circle class="cls-5" cx="230.6" cy="85.69" r="0.91"/><circle class="cls-5" cx="230.6" cy="89.69" r="0.91"/><circle class="cls-5" cx="230.6" cy="93.69" r="0.91"/><circle class="cls-5" cx="230.6" cy="97.69" r="0.91"/><circle class="cls-5" cx="230.6" cy="101.69" r="0.91"/><circle class="cls-5" cx="230.6" cy="105.69" r="0.91"/><circle class="cls-5" cx="230.6" cy="109.69" r="0.91"/><circle class="cls-5" cx="230.6" cy="113.69" r="0.91"/><circle class="cls-5" cx="230.6" cy="117.69" r="0.91"/><circle class="cls-5" cx="230.6" cy="121.69" r="0.91"/><circle class="cls-5" cx="235.1" cy="59.69" r="0.91"/><circle class="cls-5" cx="235.1" cy="63.69" r="0.91"/><circle class="cls-5" cx="235.1" cy="67.69" r="0.91"/><circle class="cls-5" cx="235.1" cy="71.69" r="0.91"/><circle class="cls-5" cx="235.1" cy="75.69" r="0.91"/><circle class="cls-5" cx="235.1" cy="79.69" r="0.91"/><circle class="cls-5" cx="235.1" cy="83.69" r="0.91"/><circle class="cls-5" cx="235.1" cy="87.69" r="0.91"/><circle class="cls-5" cx="235.1" cy="91.69" r="0.91"/><circle class="cls-5" cx="235.1" cy="95.69" r="0.91"/><circle class="cls-5" cx="235.1" cy="99.69" r="0.91"/><circle class="cls-5" cx="235.1" cy="103.69" r="0.91"/><circle class="cls-5" cx="235.1" cy="107.69" r="0.91"/><circle class="cls-5" cx="235.1" cy="111.69" r="0.91"/><circle class="cls-5" cx="235.1" cy="115.69" r="0.91"/><circle class="cls-5" cx="235.1" cy="119.69" r="0.91"/><circle class="cls-5" cx="239.6" cy="61.69" r="0.91"/><circle class="cls-5" cx="239.6" cy="65.69" r="0.91"/><circle class="cls-5" cx="239.6" cy="69.69" r="0.91"/><circle class="cls-5" cx="239.6" cy="73.69" r="0.91"/><circle class="cls-5" cx="239.6" cy="77.69" r="0.91"/><circle class="cls-5" cx="239.6" cy="81.69" r="0.91"/><circle class="cls-5" cx="239.6" cy="85.69" r="0.91"/><circle class="cls-5" cx="239.6" cy="89.69" r="0.91"/><circle class="cls-5" cx="239.6" cy="93.69" r="0.91"/><circle class="cls-5" cx="239.6" cy="97.69" r="0.91"/><circle class="cls-5" cx="239.6" cy="101.69" r="0.91"/><circle class="cls-5" cx="239.6" cy="105.69" r="0.91"/><circle class="cls-5" cx="239.6" cy="109.69" r="0.91"/><circle class="cls-5" cx="239.6" cy="113.69" r="0.91"/><circle class="cls-5" cx="239.6" cy="117.69" r="0.91"/><circle class="cls-5" cx="239.6" cy="121.69" r="0.91"/></g><g id="Layer_9" data-name="Layer 9"><rect class="cls-5" x="194.5" y="123" width="46.42" height="17.08"/></g><g id="Layer_8" data-name="Layer 8"><polygon class="cls-5" points="223.89 27.34 223.88 27.33 223.88 27.34 223.89 27.34"/><path class="cls-5" d="M211.25,44.44h0l.07,0Z"/><path class="cls-5" d="M226.46,29.63a10.66,10.66,0,0,1-14.88,15.08L240.92,68V42.51Z"/><circle class="cls-6" cx="218.17" cy="36.33" r="10.67"/></g><g id="Layer_4" data-name="Layer 4"><rect class="cls-7" x="28.64" y="26.33" width="143.55" height="113.75" rx="5" ry="5"/></g><g id="Layer_7" data-name="Layer 7"><path class="cls-8" d="M167.19,26.33H154.27L153,28,32.51,139.94a4.66,4.66,0,0,0,1.13.14H167.19a5,5,0,0,0,5-5V31.33A5,5,0,0,0,167.19,26.33Z"/></g><g id="text"><path class="cls-3" d="M48.51,75.94a2.34,2.34,0,0,1,2.63-2.62H95.56a2.34,2.34,0,0,1,2.63,2.62V85.6a2.34,2.34,0,0,1-2.63,2.61H83.44a2.3,2.3,0,0,0-2.63,2.58v40.57A2.28,2.28,0,0,1,78.23,134H68.52a2.31,2.31,0,0,1-2.63-2.59V90.79a2.28,2.28,0,0,0-2.58-2.58H51.14a2.34,2.34,0,0,1-2.63-2.61Z"/><path class="cls-3" d="M101.79,75.23c0-1.27.8-1.91,2.38-1.91h10.34a2.69,2.69,0,0,1,2.84,2.29L125,108.86a1,1,0,0,0,.3.51.31.31,0,0,0,.42,0,1,1,0,0,0,.3-.51l7.63-33.25a2.7,2.7,0,0,1,2.88-2.29H146.9c1.58,0,2.37.66,2.37,1.91a4.12,4.12,0,0,1-.13,1l-12.67,55.55a2.69,2.69,0,0,1-2.89,2.24H117.44a2.62,2.62,0,0,1-2.84-2.24L101.92,76.2A4.73,4.73,0,0,1,101.79,75.23Z"/><path class="cls-3" d="M49.24,61.51v-10a17,17,0,0,1,.11-2A11.33,11.33,0,0,1,50,47a7.9,7.9,0,0,1,1.55-2.56,7.73,7.73,0,0,1,2.92-1.84,12.16,12.16,0,0,1,4.56-.77,12.77,12.77,0,0,1,4.15.61A8.29,8.29,0,0,1,66,43.92a7.23,7.23,0,0,1,1.66,2.14,9.56,9.56,0,0,1,.89,2.25,11.44,11.44,0,0,1,.29,2.21,1.14,1.14,0,0,1-1,1.23l-4.44,1a1.56,1.56,0,0,1-.35,0c-.56,0-.87-.36-.94-1.09a3.66,3.66,0,0,0-.78-2.29,3,3,0,0,0-2.28-.74c-1.32,0-2.17.38-2.54,1.15A9.38,9.38,0,0,0,56,53.64v5.77a9.38,9.38,0,0,0,.56,3.81c.37.77,1.22,1.15,2.54,1.15a3.91,3.91,0,0,0,1.7-.31,1.89,1.89,0,0,0,.95-.92A4.3,4.3,0,0,0,62.1,62a11.23,11.23,0,0,0,.07-1.43H59.89a1,1,0,0,1-1.16-1.19V56.12a1.06,1.06,0,0,1,1.16-1.21h7.85a1.05,1.05,0,0,1,1.17,1.21v5.39a17.2,17.2,0,0,1-.12,2.07,10.18,10.18,0,0,1-.69,2.48,7.78,7.78,0,0,1-1.55,2.55,7.89,7.89,0,0,1-2.91,1.85,13.75,13.75,0,0,1-9.13,0,7.86,7.86,0,0,1-2.92-1.85A8,8,0,0,1,50,66.06a11.19,11.19,0,0,1-.69-2.48A17.25,17.25,0,0,1,49.24,61.51Z"/><path class="cls-3" d="M72.69,61.51V43.72a1.07,1.07,0,0,1,1.19-1.21h4.38c.78,0,1.17.4,1.17,1.21V59.41A9.42,9.42,0,0,0,80,63.22c.37.77,1.22,1.15,2.56,1.15s2.18-.38,2.54-1.15a9.42,9.42,0,0,0,.55-3.81V43.72a1.06,1.06,0,0,1,1.17-1.21h4.4c.77,0,1.16.4,1.16,1.21V61.51a17.25,17.25,0,0,1-.11,2.07,11.07,11.07,0,0,1-.68,2.48A7.78,7.78,0,0,1,90,68.61a8,8,0,0,1-2.93,1.85,13.75,13.75,0,0,1-9.13,0,7.89,7.89,0,0,1-2.91-1.85,7.78,7.78,0,0,1-1.55-2.55,10.18,10.18,0,0,1-.69-2.48A17.2,17.2,0,0,1,72.69,61.51Z"/><path class="cls-3" d="M96.63,43.72c0-.81.4-1.21,1.18-1.21h4.29a1.07,1.07,0,0,1,1.19,1.21V69.33a1.07,1.07,0,0,1-1.19,1.19H97.81a1,1,0,0,1-1.18-1.19Z"/><path class="cls-3" d="M107.78,69.33V43.76A1.13,1.13,0,0,1,109,42.51h8.74q5.42,0,7.6,2.29t2.19,7.32v8.75c0,3.36-.74,5.81-2.2,7.34s-4,2.31-7.59,2.31H109A1,1,0,0,1,107.78,69.33Zm6.73-6.9a1.06,1.06,0,0,0,1.17,1.21h2.14a3.45,3.45,0,0,0,2.17-.52,2.84,2.84,0,0,0,.65-2.21V52.1a2.85,2.85,0,0,0-.63-2.22,3.62,3.62,0,0,0-2.19-.49h-2.14a1,1,0,0,0-1.17,1.19Z"/><path class="cls-3" d="M131.6,43.72a1.07,1.07,0,0,1,1.18-1.21h16.46a1.06,1.06,0,0,1,1.17,1.21v4.47c0,.81-.39,1.22-1.17,1.22h-9.49a1,1,0,0,0-1.17,1.19v1.29a1,1,0,0,0,1.17,1.19h6.08A1.06,1.06,0,0,1,147,54.29v4.47A1,1,0,0,1,145.83,60h-6.08a1.07,1.07,0,0,0-1.17,1.21v1.27c0,.81.39,1.21,1.17,1.21h9.49a1,1,0,0,1,1.17,1.19v4.5a1,1,0,0,1-1.17,1.19H132.78a1,1,0,0,1-1.18-1.19Z"/></g></svg>